<svg width="15" height="12" viewBox="0 0 15 12" fill="none" xmlns="http://www.w3.org/2000/svg">
<path d="M13.3333 1.25714H12.5V0.142853H10.8333V1.25714H4.16667V0.142853H2.5V1.25714H1.66667C0.741667 1.25714 0.00833333 1.75857 0.00833333 2.37143L0 10.1714C0 10.7843 0.741667 11.2857 1.66667 11.2857H13.3333C14.25 11.2857 15 10.7843 15 10.1714V2.37143C15 1.75857 14.25 1.25714 13.3333 1.25714ZM13.3333 10.1714H1.66667V4.6H13.3333V10.1714ZM5 6.82857H3.33333V5.71429H5V6.82857ZM8.33333 6.82857H6.66667V5.71429H8.33333V6.82857ZM11.6667 6.82857H10V5.71429H11.6667V6.82857ZM5 9.05715H3.33333V7.94286H5V9.05715ZM8.33333 9.05715H6.66667V7.94286H8.33333V9.05715ZM11.6667 9.05715H10V7.94286H11.6667V9.05715Z" fill="black"/>
</svg>
