<svg width="20" height="20" viewBox="0 0 20 20" fill="none" xmlns="http://www.w3.org/2000/svg">
<path d="M15 10C13.6167 10 12.4377 9.51233 11.463 8.537C10.4877 7.56233 10 6.38333 10 5C10 3.61667 10.4877 2.43733 11.463 1.462C12.4377 0.487333 13.6167 0 15 0C16.3833 0 17.5627 0.487333 18.538 1.462C19.5127 2.43733 20 3.61667 20 5C20 6.38333 19.5127 7.56233 18.538 8.537C17.5627 9.51233 16.3833 10 15 10ZM0.6 19.4C0.416667 19.2167 0.271 19.0083 0.163 18.775C0.0543334 18.5417 0 18.2833 0 18V4C0 3.45 0.195667 2.979 0.587 2.587C0.979 2.19567 1.45 2 2 2H8.7C8.46667 2.45 8.29167 2.929 8.175 3.437C8.05833 3.94567 8 4.46667 8 5C8 5.98333 8.18333 6.89567 8.55 7.737C8.91667 8.579 9.41667 9.31667 10.05 9.95L0.6 19.4ZM9 20V14.6C9 13.9 9.21233 13.2707 9.637 12.712C10.0623 12.154 10.6167 11.8 11.3 11.65C11.8833 11.5167 12.4833 11.4167 13.1 11.35C13.7167 11.2833 14.35 11.25 15 11.25C15.5333 11.25 16.046 11.2707 16.538 11.312C17.0293 11.354 17.5167 11.4167 18 11.5V18C18 18.55 17.8043 19.021 17.413 19.413C17.021 19.8043 16.55 20 16 20H9Z" fill="black"/>
</svg>
